<svg xmlns="http://www.w3.org/2000/svg" xmlns:xlink="http://www.w3.org/1999/xlink" width="500" zoomAndPan="magnify" viewBox="0 0 375 374.999991" height="500" preserveAspectRatio="xMidYMid meet" version="1.0"><defs><g/><clipPath id="ad10b4edcf"><path d="M 39.1875 39.1875 L 335.8125 39.1875 L 335.8125 335.8125 L 39.1875 335.8125 Z M 39.1875 39.1875 " clip-rule="nonzero"/></clipPath><clipPath id="b723f6903d"><path d="M 187.5 39.1875 C 105.589844 39.1875 39.1875 105.589844 39.1875 187.5 C 39.1875 269.410156 105.589844 335.8125 187.5 335.8125 C 269.410156 335.8125 335.8125 269.410156 335.8125 187.5 C 335.8125 105.589844 269.410156 39.1875 187.5 39.1875 Z M 187.5 39.1875 " clip-rule="nonzero"/></clipPath><clipPath id="6c1c69a839"><path d="M 0.1875 0.1875 L 296.8125 0.1875 L 296.8125 296.8125 L 0.1875 296.8125 Z M 0.1875 0.1875 " clip-rule="nonzero"/></clipPath><clipPath id="7a60c43893"><path d="M 148.5 0.1875 C 66.589844 0.1875 0.1875 66.589844 0.1875 148.5 C 0.1875 230.410156 66.589844 296.8125 148.5 296.8125 C 230.410156 296.8125 296.8125 230.410156 296.8125 148.5 C 296.8125 66.589844 230.410156 0.1875 148.5 0.1875 Z M 148.5 0.1875 " clip-rule="nonzero"/></clipPath><clipPath id="6558bfa85d"><rect x="0" width="297" y="0" height="297"/></clipPath><clipPath id="78d6979d01"><path d="M 67.414062 67.414062 L 307.414062 67.414062 L 307.414062 307.414062 L 67.414062 307.414062 Z M 67.414062 67.414062 " clip-rule="nonzero"/></clipPath><clipPath id="acadf2af6f"><path d="M 187.496094 67.414062 C 121.179688 67.414062 67.414062 121.179688 67.414062 187.496094 C 67.414062 253.816406 121.179688 307.578125 187.496094 307.578125 C 253.816406 307.578125 307.578125 253.816406 307.578125 187.496094 C 307.578125 121.179688 253.816406 67.414062 187.496094 67.414062 Z M 187.496094 67.414062 " clip-rule="nonzero"/></clipPath><clipPath id="a9c47b5d98"><path d="M 50.847656 50.847656 L 323.847656 50.847656 L 323.847656 323.847656 L 50.847656 323.847656 Z M 50.847656 50.847656 " clip-rule="nonzero"/></clipPath><clipPath id="b9a2662404"><path d="M 187.496094 50.847656 C 112.027344 50.847656 50.847656 112.027344 50.847656 187.496094 C 50.847656 262.964844 112.027344 324.140625 187.496094 324.140625 C 262.964844 324.140625 324.140625 262.964844 324.140625 187.496094 C 324.140625 112.027344 262.964844 50.847656 187.496094 50.847656 Z M 187.496094 50.847656 " clip-rule="nonzero"/></clipPath><clipPath id="a8f652db36"><path d="M 144.933594 126.003906 L 230.433594 126.003906 L 230.433594 200.253906 L 144.933594 200.253906 Z M 144.933594 126.003906 " clip-rule="nonzero"/></clipPath></defs><g clip-path="url(#ad10b4edcf)"><g clip-path="url(#b723f6903d)"><g transform="matrix(1, 0, 0, 1, 39, 39)"><g clip-path="url(#6558bfa85d)"><g clip-path="url(#6c1c69a839)"><g clip-path="url(#7a60c43893)"><path fill="#000000" d="M 0.1875 0.1875 L 296.8125 0.1875 L 296.8125 296.8125 L 0.1875 296.8125 Z M 0.1875 0.1875 " fill-opacity="1" fill-rule="nonzero"/></g></g></g></g></g></g><g clip-path="url(#78d6979d01)"><g clip-path="url(#acadf2af6f)"><path stroke-linecap="butt" transform="matrix(0.75, 0, 0, 0.75, 67.415486, 67.415482)" fill="none" stroke-linejoin="miter" d="M 160.107487 -0.00189263 C 71.685606 -0.00189263 -0.00189863 71.685612 -0.00189863 160.107493 C -0.00189863 248.534582 71.685606 320.216878 160.107487 320.216878 C 248.534576 320.216878 320.216872 248.534582 320.216872 160.107493 C 320.216872 71.685612 248.534576 -0.00189263 160.107487 -0.00189263 Z M 160.107487 -0.00189263 " stroke="#a6a6a6" stroke-width="6" stroke-opacity="1" stroke-miterlimit="4"/></g></g><g clip-path="url(#a9c47b5d98)"><g clip-path="url(#b9a2662404)"><path stroke-linecap="butt" transform="matrix(0.75, 0, 0, 0.75, 50.84902, 50.849015)" fill="none" stroke-linejoin="miter" d="M 182.196111 -0.00181175 C 81.571104 -0.00181175 -0.00181775 81.57111 -0.00181775 182.196117 C -0.00181775 282.821123 81.571104 364.388837 182.196111 364.388837 C 282.821117 364.388837 364.388831 282.821123 364.388831 182.196117 C 364.388831 81.57111 282.821117 -0.00181175 182.196111 -0.00181175 Z M 182.196111 -0.00181175 " stroke="#ffffff" stroke-width="12" stroke-opacity="1" stroke-miterlimit="4"/></g></g><path stroke-linecap="round" transform="matrix(0.75, 0, 0, 0.75, 91.096098, 169.026479)" fill="none" stroke-linejoin="miter" d="M 1.502078 1.501154 L 68.996874 1.501154 " stroke="#a6a6a6" stroke-width="3" stroke-opacity="1" stroke-miterlimit="4"/><path stroke-linecap="round" transform="matrix(0.75, 0, 0, 0.75, 91.096098, 175.163967)" fill="none" stroke-linejoin="miter" d="M 1.502078 1.500128 L 68.996874 1.500128 " stroke="#a6a6a6" stroke-width="3" stroke-opacity="1" stroke-miterlimit="4"/><path stroke-linecap="round" transform="matrix(0.75, 0, 0, 0.75, 231.030618, 167.901479)" fill="none" stroke-linejoin="miter" d="M 1.500843 1.501154 L 68.995639 1.501154 " stroke="#a6a6a6" stroke-width="3" stroke-opacity="1" stroke-miterlimit="4"/><path stroke-linecap="round" transform="matrix(0.75, 0, 0, 0.75, 231.030618, 174.038967)" fill="none" stroke-linejoin="miter" d="M 1.500843 1.500127 L 68.995639 1.500127 " stroke="#a6a6a6" stroke-width="3" stroke-opacity="1" stroke-miterlimit="4"/><g fill="#ff3131" fill-opacity="1"><g transform="translate(125.325897, 130.992417)"><g><path d="M 5.640625 -9.546875 L 7.15625 -9.15625 C 7.21875 -8.445312 7.085938 -7.6875 6.765625 -6.875 C 6.453125 -6.0625 5.976562 -5.347656 5.34375 -4.734375 C 4.082031 -3.535156 2.84375 -2.910156 1.625 -2.859375 C 0.40625 -2.804688 -0.671875 -3.273438 -1.609375 -4.265625 L -9.1875 -12.171875 C -10.144531 -13.171875 -10.578125 -14.257812 -10.484375 -15.4375 C -10.398438 -16.625 -9.796875 -17.757812 -8.671875 -18.84375 C -8.003906 -19.46875 -7.285156 -19.960938 -6.515625 -20.328125 C -5.742188 -20.703125 -5.082031 -20.925781 -4.53125 -21 L -1.6875 -18.03125 L -2.953125 -16.828125 L -5.15625 -19.125 C -5.5 -19 -5.894531 -18.800781 -6.34375 -18.53125 C -6.789062 -18.257812 -7.195312 -17.960938 -7.5625 -17.640625 C -8.25 -16.984375 -8.625 -16.285156 -8.6875 -15.546875 C -8.757812 -14.816406 -8.46875 -14.101562 -7.8125 -13.40625 L -0.296875 -5.5625 C 0.367188 -4.863281 1.101562 -4.566406 1.90625 -4.671875 C 2.71875 -4.785156 3.492188 -5.191406 4.234375 -5.890625 C 4.765625 -6.441406 5.144531 -7.066406 5.375 -7.765625 C 5.613281 -8.460938 5.703125 -9.054688 5.640625 -9.546875 Z M 5.640625 -9.546875 "/></g></g></g><g fill="#ff3131" fill-opacity="1"><g transform="translate(136.370269, 120.713134)"><g><path d="M 8.890625 -5.796875 L 5.421875 -9.03125 L 0.578125 -5.875 L 2.140625 -1.40625 L 0.59375 -0.390625 L -5.703125 -19.390625 L -4.359375 -20.28125 L 10.5 -6.84375 Z M 0.046875 -7.4375 L 4.21875 -10.140625 L -0.78125 -14.828125 C -1.289062 -15.273438 -1.804688 -15.78125 -2.328125 -16.34375 C -2.847656 -16.914062 -3.367188 -17.476562 -3.890625 -18.03125 C -3.585938 -17.332031 -3.285156 -16.628906 -2.984375 -15.921875 C -2.679688 -15.210938 -2.425781 -14.53125 -2.21875 -13.875 Z M 0.046875 -7.4375 "/></g></g></g><g fill="#ff3131" fill-opacity="1"><g transform="translate(149.61371, 112.352353)"><g><path d="M 11.515625 -4.734375 L 9.640625 -3.96875 L 2.96875 -9.96875 L 2.84375 -9.921875 C 2.507812 -9.785156 2.140625 -9.65625 1.734375 -9.53125 C 1.328125 -9.414062 0.941406 -9.328125 0.578125 -9.265625 L 3.75 -1.546875 L 2.015625 -0.828125 L -5.34375 -18.734375 L -1.265625 -20.421875 C 0.0664062 -20.960938 1.273438 -21.023438 2.359375 -20.609375 C 3.453125 -20.203125 4.265625 -19.359375 4.796875 -18.078125 L 5.6875 -15.921875 C 6.070312 -14.984375 6.160156 -14.082031 5.953125 -13.21875 C 5.742188 -12.351562 5.28125 -11.601562 4.5625 -10.96875 Z M -3 -17.953125 L -0.046875 -10.78125 C 0.753906 -10.957031 1.472656 -11.175781 2.109375 -11.4375 C 2.984375 -11.800781 3.597656 -12.3125 3.953125 -12.96875 C 4.304688 -13.625 4.300781 -14.394531 3.9375 -15.28125 L 3.109375 -17.328125 C 2.367188 -19.109375 1.113281 -19.640625 -0.65625 -18.921875 Z M -3 -17.953125 "/></g></g></g><g fill="#ff3131" fill-opacity="1"><g transform="translate(164.081275, 106.58706)"><g><path d="M 2.140625 -0.421875 L -1.625 -19.40625 L 0.390625 -19.8125 L 8.140625 -8.328125 C 8.359375 -8.003906 8.582031 -7.617188 8.8125 -7.171875 C 9.050781 -6.722656 9.257812 -6.316406 9.4375 -5.953125 C 9.613281 -5.585938 9.734375 -5.367188 9.796875 -5.296875 L 9 -8.390625 L 6.5 -21.015625 L 8.265625 -21.359375 L 12.03125 -2.375 L 10.25 -2.03125 L 2.609375 -13.171875 C 2.316406 -13.617188 2.03125 -14.097656 1.75 -14.609375 C 1.476562 -15.117188 1.234375 -15.585938 1.015625 -16.015625 C 0.804688 -16.441406 0.640625 -16.722656 0.515625 -16.859375 L 1.296875 -13.71875 L 3.859375 -0.765625 Z M 2.140625 -0.421875 "/></g></g></g><g fill="#ff3131" fill-opacity="1"><g transform="translate(180.922187, 103.789165)"><g><path d="M 2.1875 -0.046875 L 1.421875 -19.421875 L 3.28125 -19.5 L 4.046875 -0.125 Z M 2.1875 -0.046875 "/></g></g></g><g fill="#ff3131" fill-opacity="1"><g transform="translate(189.873355, 103.403413)"><g><path d="M 10.921875 -1.84375 L 11.609375 -0.4375 C 11.109375 0.0625 10.441406 0.453125 9.609375 0.734375 C 8.785156 1.023438 7.929688 1.125 7.046875 1.03125 C 5.316406 0.84375 4.039062 0.300781 3.21875 -0.59375 C 2.40625 -1.488281 2.070312 -2.613281 2.21875 -3.96875 L 3.375 -14.859375 C 3.519531 -16.242188 4.070312 -17.285156 5.03125 -17.984375 C 5.988281 -18.679688 7.25 -18.945312 8.8125 -18.78125 C 9.71875 -18.6875 10.554688 -18.460938 11.328125 -18.109375 C 12.109375 -17.753906 12.707031 -17.382812 13.125 -17 L 12.6875 -12.921875 L 10.96875 -13.109375 L 11.296875 -16.28125 C 10.972656 -16.46875 10.5625 -16.640625 10.0625 -16.796875 C 9.5625 -16.960938 9.070312 -17.082031 8.59375 -17.15625 C 7.644531 -17.257812 6.867188 -17.097656 6.265625 -16.671875 C 5.671875 -16.253906 5.320312 -15.570312 5.21875 -14.625 L 4.0625 -3.8125 C 3.957031 -2.851562 4.207031 -2.101562 4.8125 -1.5625 C 5.414062 -1.019531 6.21875 -0.691406 7.21875 -0.578125 C 7.988281 -0.515625 8.710938 -0.617188 9.390625 -0.890625 C 10.078125 -1.160156 10.585938 -1.476562 10.921875 -1.84375 Z M 10.921875 -1.84375 "/></g></g></g><g fill="#ff3131" fill-opacity="1"><g transform="translate(204.891379, 105.27861)"><g><path d="M 4.3125 -0.4375 L 10.609375 1.390625 L 10.15625 2.953125 L 2.09375 0.609375 L 7.484375 -17.984375 L 15.53125 -15.65625 L 15.078125 -14.09375 L 8.796875 -15.90625 L 6.859375 -9.21875 L 12.625 -7.546875 L 12.171875 -6 L 6.40625 -7.671875 Z M 4.3125 -0.4375 "/></g></g></g><g fill="#ff3131" fill-opacity="1"><g transform="translate(218.413336, 109.365)"><g><path d="M 11.15625 5.546875 L 9.328125 4.640625 L 9.453125 -4.34375 L 9.34375 -4.390625 C 9.019531 -4.554688 8.675781 -4.753906 8.3125 -4.984375 C 7.957031 -5.210938 7.632812 -5.441406 7.34375 -5.671875 L 3.625 1.796875 L 1.953125 0.96875 L 10.578125 -16.359375 L 14.53125 -14.390625 C 15.8125 -13.753906 16.65625 -12.890625 17.0625 -11.796875 C 17.476562 -10.710938 17.378906 -9.550781 16.765625 -8.3125 L 15.71875 -6.234375 C 15.269531 -5.316406 14.648438 -4.648438 13.859375 -4.234375 C 13.078125 -3.816406 12.210938 -3.675781 11.265625 -3.8125 Z M 11.515625 -14.078125 L 8.078125 -7.140625 C 8.742188 -6.648438 9.382812 -6.253906 10 -5.953125 C 10.84375 -5.523438 11.628906 -5.394531 12.359375 -5.5625 C 13.085938 -5.738281 13.664062 -6.253906 14.09375 -7.109375 L 15.078125 -9.09375 C 15.929688 -10.8125 15.503906 -12.09375 13.796875 -12.9375 Z M 11.515625 -14.078125 "/></g></g></g><g fill="#ff3131" fill-opacity="1"><g transform="translate(232.37225, 116.818008)"><g><path d="M 13.75 -15.90625 L 17.4375 -17.921875 L 18.9375 -16.859375 L 15.046875 -15.015625 Z M 1.78125 1.28125 L 12.890625 -14.609375 L 14.40625 -13.546875 L 3.296875 2.34375 Z M 1.78125 1.28125 "/></g></g></g><g fill="#ff3131" fill-opacity="1"><g transform="translate(239.732125, 121.897283)"><g><path d="M 7.6875 7.3125 L 10.03125 3.203125 L 5.84375 -0.78125 L 1.859375 1.765625 L 0.515625 0.484375 L 17.546875 -10.03125 L 18.703125 -8.921875 L 9.078125 8.625 Z M 7.25 -1.671875 L 10.84375 1.75 L 14.234375 -4.171875 C 14.566406 -4.773438 14.941406 -5.394531 15.359375 -6.03125 C 15.785156 -6.664062 16.210938 -7.300781 16.640625 -7.9375 C 16.023438 -7.488281 15.40625 -7.035156 14.78125 -6.578125 C 14.164062 -6.128906 13.5625 -5.722656 12.96875 -5.359375 Z M 7.25 -1.671875 "/></g></g></g><g fill="#00bf63" fill-opacity="1"><g transform="translate(151.825043, 243.304232)"><g><path d="M 14.53125 -27.75 L 14.53125 -24.25 C 14.53125 -23.75 14.347656 -23.5 13.984375 -23.5 L 6.953125 -23.5 L 6.953125 -16.46875 L 12.375 -16.46875 C 12.539062 -16.46875 12.6875 -16.414062 12.8125 -16.3125 C 12.9375 -16.21875 13 -16.03125 13 -15.75 L 13 -12.25 C 13 -11.769531 12.789062 -11.53125 12.375 -11.53125 L 6.953125 -11.53125 L 6.953125 -0.78125 C 6.953125 -0.257812 6.734375 0 6.296875 0 L 2.1875 0 C 1.71875 0 1.484375 -0.257812 1.484375 -0.78125 L 1.484375 -27.703125 C 1.484375 -28.234375 1.71875 -28.5 2.1875 -28.5 L 13.984375 -28.5 C 14.347656 -28.5 14.53125 -28.25 14.53125 -27.75 Z M 14.53125 -27.75 "/></g></g></g><g fill="#00bf63" fill-opacity="1"><g transform="translate(172.299574, 243.304232)"><g><path d="M 21.09375 -0.828125 L 21.09375 -21.5 C 21.09375 -22.144531 20.894531 -22.71875 20.5 -23.21875 C 20.101562 -23.71875 19.5625 -23.96875 18.875 -23.96875 C 18.207031 -23.96875 17.679688 -23.726562 17.296875 -23.25 C 16.910156 -22.769531 16.703125 -22.210938 16.671875 -21.578125 L 16.671875 -0.78125 C 16.671875 -0.5625 16.632812 -0.375 16.5625 -0.21875 C 16.488281 -0.0703125 16.328125 0 16.078125 0 L 11.734375 0 C 11.597656 0 11.472656 -0.078125 11.359375 -0.234375 C 11.242188 -0.390625 11.1875 -0.578125 11.1875 -0.796875 L 11.1875 -21.5 C 11.1875 -22.144531 10.992188 -22.71875 10.609375 -23.21875 C 10.222656 -23.71875 9.6875 -23.96875 9 -23.96875 C 8.300781 -23.96875 7.757812 -23.71875 7.375 -23.21875 C 6.988281 -22.71875 6.796875 -22.144531 6.796875 -21.5 L 6.796875 -0.796875 C 6.796875 -0.578125 6.753906 -0.390625 6.671875 -0.234375 C 6.585938 -0.078125 6.421875 0 6.171875 0 L 1.828125 0 C 1.691406 0 1.566406 -0.078125 1.453125 -0.234375 C 1.347656 -0.390625 1.296875 -0.578125 1.296875 -0.796875 L 1.296875 -21.8125 C 1.296875 -22.800781 1.5 -23.726562 1.90625 -24.59375 C 2.320312 -25.457031 2.882812 -26.210938 3.59375 -26.859375 C 4.300781 -27.515625 5.117188 -28.023438 6.046875 -28.390625 C 6.972656 -28.765625 7.953125 -28.953125 8.984375 -28.953125 C 9.898438 -28.953125 10.78125 -28.800781 11.625 -28.5 C 12.476562 -28.195312 13.242188 -27.78125 13.921875 -27.25 C 14.585938 -27.78125 15.347656 -28.195312 16.203125 -28.5 C 17.054688 -28.800781 17.941406 -28.953125 18.859375 -28.953125 C 19.890625 -28.953125 20.867188 -28.765625 21.796875 -28.390625 C 22.722656 -28.023438 23.539062 -27.515625 24.25 -26.859375 C 24.96875 -26.210938 25.53125 -25.457031 25.9375 -24.59375 C 26.351562 -23.726562 26.5625 -22.800781 26.5625 -21.8125 L 26.5625 -0.828125 C 26.5625 -0.617188 26.515625 -0.425781 26.421875 -0.25 C 26.328125 -0.0820312 26.160156 0 25.921875 0 L 21.75 0 C 21.53125 0 21.363281 -0.0820312 21.25 -0.25 C 21.144531 -0.414062 21.09375 -0.609375 21.09375 -0.828125 Z M 21.09375 -0.828125 "/></g></g></g><g fill="#00bf63" fill-opacity="1"><g transform="translate(205.806259, 243.304232)"><g><path d="M 11.390625 -14.46875 L 11.390625 -21 C 11.390625 -21.738281 11.171875 -22.335938 10.734375 -22.796875 C 10.304688 -23.265625 9.734375 -23.5 9.015625 -23.5 L 6.953125 -23.5 L 6.953125 -12.03125 L 9.046875 -12.03125 C 9.753906 -12.03125 10.320312 -12.257812 10.75 -12.71875 C 11.175781 -13.1875 11.390625 -13.769531 11.390625 -14.46875 Z M 1.484375 -0.78125 L 1.484375 -27.703125 C 1.484375 -28.234375 1.71875 -28.5 2.1875 -28.5 L 9.453125 -28.5 C 10.503906 -28.5 11.484375 -28.304688 12.390625 -27.921875 C 13.296875 -27.546875 14.082031 -27.019531 14.75 -26.34375 C 15.425781 -25.675781 15.953125 -24.894531 16.328125 -24 C 16.703125 -23.101562 16.890625 -22.140625 16.890625 -21.109375 L 16.890625 -14.515625 C 16.890625 -13.484375 16.703125 -12.515625 16.328125 -11.609375 C 15.953125 -10.703125 15.425781 -9.910156 14.75 -9.234375 C 14.082031 -8.554688 13.296875 -8.023438 12.390625 -7.640625 C 11.484375 -7.253906 10.503906 -7.0625 9.453125 -7.0625 L 6.953125 -7.0625 L 6.953125 -0.78125 C 6.953125 -0.257812 6.726562 0 6.28125 0 L 2.1875 0 C 1.71875 0 1.484375 -0.257812 1.484375 -0.78125 Z M 1.484375 -0.78125 "/></g></g></g><g fill="#ff3131" fill-opacity="1"><g transform="translate(146.878962, 272.380235)"><g><path d="M 3.828125 -10.75 C 4.628906 -10.75 5.257812 -10.53125 5.71875 -10.09375 C 6.1875 -9.65625 6.421875 -9.050781 6.421875 -8.28125 L 6.421875 -2.46875 C 6.421875 -1.707031 6.1875 -1.101562 5.71875 -0.65625 C 5.257812 -0.21875 4.628906 0 3.828125 0 L 1.21875 0 L 1.21875 -10.75 Z M 5.40625 -2.5 L 5.40625 -8.25 C 5.40625 -9.320312 4.878906 -9.859375 3.828125 -9.859375 L 2.234375 -9.859375 L 2.234375 -0.90625 L 3.828125 -0.90625 C 4.878906 -0.90625 5.40625 -1.4375 5.40625 -2.5 Z M 5.40625 -2.5 "/></g></g></g><g fill="#ff3131" fill-opacity="1"><g transform="translate(156.298948, 272.380235)"><g><path d="M 2.234375 -0.90625 L 5.875 -0.90625 L 5.875 0 L 1.21875 0 L 1.21875 -10.75 L 5.859375 -10.75 L 5.859375 -9.859375 L 2.234375 -9.859375 L 2.234375 -5.984375 L 5.5625 -5.984375 L 5.5625 -5.078125 L 2.234375 -5.078125 Z M 2.234375 -0.90625 "/></g></g></g><g fill="#ff3131" fill-opacity="1"><g transform="translate(164.758935, 272.380235)"><g><path d="M 2.984375 0.15625 C 2.515625 0.15625 2.101562 0.0703125 1.75 -0.09375 C 1.394531 -0.269531 1.097656 -0.476562 0.859375 -0.71875 C 0.628906 -0.957031 0.457031 -1.179688 0.34375 -1.390625 L 1.078125 -1.984375 C 1.160156 -1.828125 1.285156 -1.65625 1.453125 -1.46875 C 1.628906 -1.28125 1.847656 -1.113281 2.109375 -0.96875 C 2.367188 -0.820312 2.660156 -0.75 2.984375 -0.75 C 3.648438 -0.75 4.140625 -0.914062 4.453125 -1.25 C 4.765625 -1.59375 4.921875 -1.988281 4.921875 -2.4375 C 4.921875 -2.863281 4.796875 -3.234375 4.546875 -3.546875 C 4.296875 -3.859375 3.945312 -4.203125 3.5 -4.578125 L 2.25 -5.59375 C 1.71875 -6.03125 1.316406 -6.46875 1.046875 -6.90625 C 0.785156 -7.351562 0.660156 -7.863281 0.671875 -8.4375 C 0.679688 -9.15625 0.914062 -9.742188 1.375 -10.203125 C 1.84375 -10.660156 2.457031 -10.890625 3.21875 -10.890625 C 3.664062 -10.878906 4.09375 -10.796875 4.5 -10.640625 C 4.90625 -10.492188 5.234375 -10.335938 5.484375 -10.171875 L 5.484375 -7.953125 L 4.53125 -7.953125 L 4.53125 -9.625 C 4.375 -9.726562 4.175781 -9.8125 3.9375 -9.875 C 3.707031 -9.9375 3.46875 -9.972656 3.21875 -9.984375 C 2.726562 -9.984375 2.347656 -9.84375 2.078125 -9.5625 C 1.816406 -9.289062 1.6875 -8.929688 1.6875 -8.484375 C 1.6875 -8.035156 1.789062 -7.648438 2 -7.328125 C 2.21875 -7.015625 2.507812 -6.707031 2.875 -6.40625 C 3.175781 -6.15625 3.429688 -5.941406 3.640625 -5.765625 C 3.847656 -5.597656 4.019531 -5.46875 4.15625 -5.375 C 4.757812 -4.894531 5.207031 -4.4375 5.5 -4 C 5.789062 -3.5625 5.929688 -3.046875 5.921875 -2.453125 C 5.921875 -1.960938 5.804688 -1.519531 5.578125 -1.125 C 5.347656 -0.738281 5.015625 -0.425781 4.578125 -0.1875 C 4.148438 0.0390625 3.617188 0.15625 2.984375 0.15625 Z M 2.984375 0.15625 "/></g></g></g><g fill="#ff3131" fill-opacity="1"><g transform="translate(173.443925, 272.380235)"><g><path d="M 3.828125 -10.75 C 4.628906 -10.75 5.257812 -10.53125 5.71875 -10.09375 C 6.1875 -9.65625 6.421875 -9.050781 6.421875 -8.28125 L 6.421875 -2.46875 C 6.421875 -1.707031 6.1875 -1.101562 5.71875 -0.65625 C 5.257812 -0.21875 4.628906 0 3.828125 0 L 1.21875 0 L 1.21875 -10.75 Z M 5.40625 -2.5 L 5.40625 -8.25 C 5.40625 -9.320312 4.878906 -9.859375 3.828125 -9.859375 L 2.234375 -9.859375 L 2.234375 -0.90625 L 3.828125 -0.90625 C 4.878906 -0.90625 5.40625 -1.4375 5.40625 -2.5 Z M 5.40625 -2.5 "/></g></g></g><g fill="#ff3131" fill-opacity="1"><g transform="translate(182.863911, 272.380235)"><g><path d="M 2.234375 -0.90625 L 5.875 -0.90625 L 5.875 0 L 1.21875 0 L 1.21875 -10.75 L 5.859375 -10.75 L 5.859375 -9.859375 L 2.234375 -9.859375 L 2.234375 -5.984375 L 5.5625 -5.984375 L 5.5625 -5.078125 L 2.234375 -5.078125 Z M 2.234375 -0.90625 "/></g></g></g><g fill="#ff3131" fill-opacity="1"><g transform="translate(191.323898, 272.380235)"><g/></g></g><g fill="#ff3131" fill-opacity="1"><g transform="translate(196.798888, 272.380235)"><g><path d="M 2.859375 -10.75 L 3.5625 -10.75 L 3.5625 0 L 2.515625 0 L 2.515625 -9.625 L 0.453125 -8.8125 L 0.453125 -9.78125 Z M 2.859375 -10.75 "/></g></g></g><g fill="#ff3131" fill-opacity="1"><g transform="translate(203.968875, 272.380235)"><g><path d="M 3.25 0.15625 C 2.707031 0.15625 2.285156 0.0820312 1.984375 -0.0625 C 1.679688 -0.21875 1.453125 -0.410156 1.296875 -0.640625 C 1.140625 -0.867188 1.015625 -1.097656 0.921875 -1.328125 L 1.640625 -1.921875 C 1.703125 -1.753906 1.78125 -1.578125 1.875 -1.390625 C 1.976562 -1.210938 2.132812 -1.0625 2.34375 -0.9375 C 2.550781 -0.8125 2.851562 -0.75 3.25 -0.75 C 3.757812 -0.75 4.148438 -0.867188 4.421875 -1.109375 C 4.691406 -1.359375 4.828125 -1.742188 4.828125 -2.265625 L 4.828125 -4.890625 C 4.734375 -4.691406 4.550781 -4.492188 4.28125 -4.296875 C 4.019531 -4.109375 3.660156 -4.015625 3.203125 -4.015625 C 2.472656 -4.015625 1.90625 -4.21875 1.5 -4.625 C 1.09375 -5.039062 0.890625 -5.628906 0.890625 -6.390625 L 0.890625 -8.546875 C 0.890625 -10.109375 1.71875 -10.890625 3.375 -10.890625 C 4.15625 -10.890625 4.765625 -10.691406 5.203125 -10.296875 C 5.640625 -9.898438 5.859375 -9.316406 5.859375 -8.546875 L 5.859375 -2.21875 C 5.859375 -1.46875 5.625 -0.882812 5.15625 -0.46875 C 4.6875 -0.0625 4.050781 0.144531 3.25 0.15625 Z M 3.40625 -4.921875 C 4.28125 -4.921875 4.753906 -5.378906 4.828125 -6.296875 L 4.828125 -8.515625 C 4.828125 -9.492188 4.34375 -9.984375 3.375 -9.984375 C 2.84375 -9.984375 2.460938 -9.863281 2.234375 -9.625 C 2.015625 -9.382812 1.90625 -9.015625 1.90625 -8.515625 L 1.90625 -6.4375 C 1.90625 -5.9375 2.023438 -5.554688 2.265625 -5.296875 C 2.503906 -5.046875 2.882812 -4.921875 3.40625 -4.921875 Z M 3.40625 -4.921875 "/></g></g></g><g fill="#ff3131" fill-opacity="1"><g transform="translate(212.698862, 272.380235)"><g><path d="M 4.484375 -5.765625 C 4.953125 -5.628906 5.289062 -5.40625 5.5 -5.09375 C 5.71875 -4.78125 5.828125 -4.359375 5.828125 -3.828125 L 5.828125 -2.21875 C 5.828125 -1.457031 5.609375 -0.867188 5.171875 -0.453125 C 4.742188 -0.0351562 4.125 0.171875 3.3125 0.171875 C 2.519531 0.171875 1.910156 -0.03125 1.484375 -0.4375 C 1.066406 -0.84375 0.859375 -1.4375 0.859375 -2.21875 L 0.859375 -3.828125 C 0.859375 -4.359375 0.957031 -4.78125 1.15625 -5.09375 C 1.351562 -5.40625 1.679688 -5.628906 2.140625 -5.765625 C 1.742188 -5.890625 1.445312 -6.097656 1.25 -6.390625 C 1.050781 -6.691406 0.953125 -7.117188 0.953125 -7.671875 L 0.953125 -8.515625 C 0.953125 -10.097656 1.738281 -10.890625 3.3125 -10.890625 C 4.9375 -10.890625 5.75 -10.097656 5.75 -8.515625 L 5.75 -7.671875 C 5.75 -7.128906 5.640625 -6.707031 5.421875 -6.40625 C 5.203125 -6.101562 4.890625 -5.890625 4.484375 -5.765625 Z M 2 -7.671875 C 2 -7.148438 2.097656 -6.769531 2.296875 -6.53125 C 2.492188 -6.300781 2.832031 -6.1875 3.3125 -6.1875 C 3.820312 -6.1875 4.179688 -6.304688 4.390625 -6.546875 C 4.597656 -6.796875 4.703125 -7.171875 4.703125 -7.671875 L 4.703125 -8.484375 C 4.703125 -8.984375 4.59375 -9.359375 4.375 -9.609375 C 4.164062 -9.859375 3.8125 -9.984375 3.3125 -9.984375 C 2.832031 -9.984375 2.492188 -9.863281 2.296875 -9.625 C 2.097656 -9.382812 2 -9.003906 2 -8.484375 Z M 4.796875 -2.25 L 4.796875 -3.828125 C 4.796875 -4.328125 4.679688 -4.695312 4.453125 -4.9375 C 4.222656 -5.1875 3.84375 -5.3125 3.3125 -5.3125 C 2.8125 -5.3125 2.445312 -5.1875 2.21875 -4.9375 C 2 -4.695312 1.890625 -4.328125 1.890625 -3.828125 L 1.890625 -2.25 C 1.890625 -1.738281 2.003906 -1.359375 2.234375 -1.109375 C 2.460938 -0.867188 2.820312 -0.75 3.3125 -0.75 C 3.84375 -0.75 4.222656 -0.875 4.453125 -1.125 C 4.679688 -1.382812 4.796875 -1.757812 4.796875 -2.25 Z M 4.796875 -2.25 "/></g></g></g><g fill="#ff3131" fill-opacity="1"><g transform="translate(221.413847, 272.380235)"><g><path d="M 3.515625 -6.765625 C 4.242188 -6.765625 4.8125 -6.5625 5.21875 -6.15625 C 5.625 -5.75 5.828125 -5.160156 5.828125 -4.390625 L 5.828125 -2.1875 C 5.828125 -0.625 5 0.15625 3.34375 0.15625 C 2.5625 0.15625 1.953125 -0.0390625 1.515625 -0.4375 C 1.078125 -0.84375 0.859375 -1.425781 0.859375 -2.1875 L 0.859375 -8.515625 C 0.859375 -9.273438 1.078125 -9.859375 1.515625 -10.265625 C 1.953125 -10.679688 2.566406 -10.890625 3.359375 -10.890625 C 3.828125 -10.890625 4.25 -10.828125 4.625 -10.703125 C 5.007812 -10.585938 5.304688 -10.460938 5.515625 -10.328125 L 5.515625 -8.078125 L 4.5625 -8.078125 L 4.5625 -9.734375 C 4.425781 -9.804688 4.253906 -9.863281 4.046875 -9.90625 C 3.847656 -9.945312 3.617188 -9.972656 3.359375 -9.984375 C 2.859375 -9.984375 2.488281 -9.863281 2.25 -9.625 C 2.007812 -9.394531 1.890625 -9.015625 1.890625 -8.484375 L 1.890625 -5.875 C 1.972656 -6.082031 2.148438 -6.28125 2.421875 -6.46875 C 2.691406 -6.664062 3.054688 -6.765625 3.515625 -6.765625 Z M 4.796875 -2.234375 L 4.796875 -4.359375 C 4.796875 -5.359375 4.300781 -5.859375 3.3125 -5.859375 C 2.882812 -5.859375 2.550781 -5.738281 2.3125 -5.5 C 2.070312 -5.257812 1.929688 -4.921875 1.890625 -4.484375 L 1.890625 -2.234375 C 1.890625 -1.242188 2.378906 -0.75 3.359375 -0.75 C 3.859375 -0.75 4.222656 -0.875 4.453125 -1.125 C 4.679688 -1.375 4.796875 -1.742188 4.796875 -2.234375 Z M 4.796875 -2.234375 "/></g></g></g><g clip-path="url(#a8f652db36)"><path fill="#ffffff" d="M 225.203125 144.074219 C 220.378906 143.078125 217.71875 144.820312 216.683594 145.082031 C 215.886719 145.28125 214.277344 146.109375 213.582031 146.46875 C 213.371094 146.582031 213.167969 146.722656 212.988281 146.882812 C 211.929688 147.832031 207.929688 151.355469 206.710938 151.285156 C 205.855469 151.234375 205.320312 150.429688 205.039062 149.8125 L 204.820312 149.191406 C 204.820312 149.191406 205.675781 147.125 204.898438 145.402344 C 205.464844 144.910156 206.671875 143.890625 209.140625 141.957031 C 213.128906 138.828125 213.550781 133.296875 213.359375 130.960938 C 213.167969 128.613281 211.316406 126.054688 211.316406 126.054688 C 211.316406 126.054688 211.605469 127.285156 210.277344 132.019531 C 209.019531 136.5 204.617188 137.445312 204.617188 137.445312 L 198.414062 139.402344 C 195.792969 138.394531 193.578125 138.554688 193.578125 138.554688 L 192.8125 137.667969 C 190.828125 138.746094 187.917969 137.667969 187.917969 137.667969 C 187.917969 137.667969 187.757812 137.730469 187.496094 137.800781 C 187.222656 137.71875 187.074219 137.667969 187.074219 137.667969 C 187.074219 137.667969 184.160156 138.746094 182.175781 137.667969 L 181.410156 138.554688 C 181.410156 138.554688 179.195312 138.394531 176.578125 139.402344 L 170.375 137.445312 C 170.375 137.445312 165.972656 136.5 164.714844 132.019531 C 163.375 127.285156 163.664062 126.054688 163.664062 126.054688 C 163.664062 126.054688 161.8125 128.613281 161.613281 130.960938 C 161.410156 133.308594 161.84375 138.828125 165.832031 141.957031 C 168.300781 143.890625 169.507812 144.910156 170.070312 145.402344 C 169.304688 147.136719 170.152344 149.191406 170.152344 149.191406 L 169.929688 149.8125 C 169.648438 150.4375 169.113281 151.234375 168.257812 151.285156 C 167.039062 151.355469 163.042969 147.832031 161.984375 146.882812 C 161.800781 146.722656 161.613281 146.582031 161.390625 146.46875 C 160.695312 146.109375 159.09375 145.28125 158.289062 145.082031 C 157.25 144.820312 154.589844 143.066406 149.765625 144.074219 C 146.171875 144.820312 144.933594 145.835938 144.933594 146.984375 C 144.933594 148.132812 145.457031 150.328125 147.664062 152.796875 C 149.859375 155.261719 155.640625 158.617188 156.433594 158.820312 C 157.230469 159.019531 160.664062 160.671875 161.800781 160.582031 C 162.949219 160.492188 164.410156 160.308594 165.558594 160.398438 C 166.011719 160.429688 166.335938 160.539062 166.597656 160.660156 C 166.839844 161.609375 167.351562 163.199219 168.167969 163.976562 C 169.226562 164.972656 170.554688 176.101562 171.570312 178.046875 C 172.40625 179.636719 175.550781 185.066406 174.835938 186.6875 C 174.109375 188.308594 174.269531 194.28125 174.492188 195.71875 C 174.714844 197.160156 178.078125 198.945312 180.605469 198.21875 C 182.710938 197.613281 180.527344 199.023438 184.132812 199.710938 C 184.855469 199.851562 185.8125 200.042969 187.09375 200.332031 C 187.382812 200.332031 187.644531 200.332031 187.9375 200.3125 C 189.1875 200.011719 190.132812 199.851562 190.859375 199.710938 C 194.464844 199.015625 192.28125 197.613281 194.382812 198.21875 C 196.902344 198.945312 200.277344 197.160156 200.496094 195.71875 C 200.71875 194.28125 200.878906 188.308594 200.15625 186.6875 C 199.429688 185.066406 202.582031 179.644531 203.417969 178.046875 C 204.4375 176.109375 205.773438 164.980469 206.824219 163.976562 C 207.636719 163.199219 208.152344 161.609375 208.394531 160.660156 C 208.65625 160.539062 208.976562 160.429688 209.429688 160.398438 C 210.578125 160.308594 212.039062 160.492188 213.1875 160.582031 C 214.335938 160.671875 217.769531 159.011719 218.554688 158.820312 C 219.339844 158.628906 225.132812 155.261719 227.328125 152.796875 C 229.523438 150.328125 230.058594 148.132812 230.058594 146.984375 C 230.046875 145.835938 228.808594 144.820312 225.203125 144.074219 Z M 225.203125 144.074219 " fill-opacity="1" fill-rule="nonzero"/></g></svg>